<svg width="12" height="17" viewBox="0 0 12 17" fill="none" xmlns="http://www.w3.org/2000/svg">
<path d="M10.511 7.97701C10.4393 9.0191 9.84505 9.7507 9.15897 10.0608C8.43151 10.3894 7.69621 10.2081 7.3291 9.60951C6.72804 8.62932 7.14106 7.94713 7.54044 7.28738C7.9933 6.53929 8.50662 5.69135 8.01428 4.04242C7.62562 2.74063 6.86443 1.64773 5.75183 0.794041C5.40499 0.527947 5.07605 0.327822 4.8091 0.184509C5.18195 1.09207 5.66681 2.78092 5.16034 4.64679C4.83912 5.83032 3.99017 6.7272 3.16917 7.59454C2.08783 8.73698 0.96962 9.91829 0.96962 11.8058C0.96962 13.27 1.47977 14.4364 2.48585 15.2727C3.24772 15.9059 4.02515 16.1525 4.03289 16.1545H5.88798L5.84915 16.1537C5.84199 16.1482 5.13525 15.5903 5.12308 14.9505C5.11741 14.6515 5.27434 14.3647 5.5895 14.098C6.0629 13.6974 6.32308 13.2661 6.38498 12.7794C6.42283 12.4818 6.38456 12.1671 6.26824 11.8275C7.05342 12.1568 7.86561 12.8758 8.14084 13.7683C8.38802 14.5699 8.15937 15.3942 7.48024 16.1545H9.51044C10.8403 15.1126 11.589 13.8641 11.7357 12.4436C11.9228 10.6324 11.0948 8.92651 10.511 7.97701Z" fill="#0C0B0B"/>
</svg>
